<?xml version="1.0" standalone="no"?>
<!DOCTYPE svg PUBLIC "-//W3C//DTD SVG 20010904//EN" "http://www.w3.org/TR/2001/REC-SVG-20010904/DTD/svg10.dtd">
<svg id="logo-svg" xmlns="http://www.w3.org/2000/svg" version="1.0" width="750" height="633" viewBox="0 0 750.000000 633.000000" preserveAspectRatio="xMidYMid meet">

<g transform="translate(0.000000,633.000000) scale(0.100000,-0.100000)" fill="#000000" stroke="none">
<path d="M5435 6123 c-490 -31 -1053 -141 -1525 -296 -1097 -362 -2054 -1009 -2643 -1790 -628 -832 -827 -1696 -561 -2431 27 -75 28 -79 10 -90 -83 -50 -332 -217 -395 -265 -148 -113 -215 -214 -215 -327 0 -129 81 -214 203 -214 67 0 128 31 212 108 81 73 198 157 367 262 l84 51 41 -48 c223 -257 483 -445 826 -595 345 -152 807 -266 1251 -309 158 -16 562 -15 700 0 263 30 543 98 760 186 92 38 302 144 385 195 119 73 216 150 325 260 110 109 176 198 253 338 25 45 90 142 145 215 268 359 671 942 862 1247 437 697 728 1351 810 1814 80 459 29 812 -159 1103 -52 81 -166 200 -253 264 -318 236 -890 360 -1483 322z m587 -477 c321 -45 569 -146 705 -288 160 -166 218 -459 157 -803 -95 -545 -464 -1294 -1064 -2160 -35 -49 -97 -139 -138 -200 -109 -159 -162 -230 -168 -228 -3 1 -26 31 -51 65 -25 35 -68 87 -97 116 l-51 53 69 272 c79 313 135 523 211 792 29 105 78 278 108 385 174 617 246 948 233 1073 -7 69 -24 105 -79 164 -107 117 -279 103 -374 -30 -17 -23 -106 -170 -198 -327 -250 -426 -447 -751 -451 -747 -3 2 14 85 36 183 118 520 134 616 128 763 -9 198 -111 311 -284 311 -158 0 -267 -105 -511 -490 -145 -229 -546 -904 -628 -1057 -16 -29 -31 -53 -34 -53 -13 0 29 380 110 990 34 258 51 463 47 566 -4 87 -9 110 -36 167 -37 79 -50 66 137 137 479 181 1027 309 1501 349 69 6 141 13 160 15 74 9 460 -4 562 -18z m-2985 -713 c-14 -25 -208 -384 -282 -523 -48 -91 -134 -250 -190 -355 -94 -175 -222 -419 -420 -800 -43 -82 -113 -211 -155 -285 -321 -561 -366 -632 -499 -797 -100 -125 -115 -156 -109 -231 l4 -58 -120 -62 c-66 -35 -123 -59 -127 -55 -5 5 -22 60 -38 122 -91 347 -56 724 106 1131 274 690 871 1344 1669 1830 138 84 172 101 161 83z m87 -993 c-13 -118 -26 -221 -29 -227 -2 -7 -21 -13 -42 -13 -48 -1 -123 -53 -146 -103 -22 -45 -22 -139 -1 -184 20 -41 66 -78 114 -90 l35 -9 -4 -260 c-3 -278 7 -397 40 -473 10 -24 19 -45 19 -46 0 -1 -28 -8 -61 -14 -187 -37 -548 -156 -824 -271 -121 -50 -177 -71 -181 -67 -2 1 17 32 42 67 147 211 288 454 514 885 294 561 542 1026 547 1022 1 -2 -9 -99 -23 -217z m1231 -176 c-125 -579 -153 -877 -94 -1004 49 -104 118 -150 227 -150 166 0 268 109 544 585 62 107 113 193 115 192 1 -2 -18 -77 -43 -168 -25 -90 -81 -301 -124 -468 -43 -167 -81 -305 -84 -308 -2 -2 -51 11 -108 31 -125 43 -354 99 -503 123 -85 13 -173 17 -387 18 -153 0 -278 0 -278 1 0 0 32 57 71 125 39 68 85 151 101 184 50 99 227 422 301 550 138 238 300 505 304 501 2 -2 -17 -97 -42 -212z m-210 -1614 c108 -13 257 -43 380 -77 92 -25 244 -80 258 -93 4 -4 -6 -69 -23 -144 -84 -378 -134 -708 -128 -845 l3 -74 -60 -33 c-338 -189 -846 -287 -1315 -255 -794 55 -1422 283 -1813 660 -31 30 -57 60 -57 66 0 12 316 169 490 245 52 23 183 80 290 126 595 260 955 366 1415 418 147 17 438 20 560 6z"/>
</g>
</svg>